<svg width="220" height="220" viewBox="0 0 220 220" fill="none" xmlns="http://www.w3.org/2000/svg">
<path fill-rule="evenodd" clip-rule="evenodd" d="M130.592 1.92418C149.608 10.2847 163 29.8765 163 52.8C163 83.3608 139.198 108 110 108C78.4467 108 53.0002 134.579 53.0002 167.2C53.0002 186.552 61.9555 203.777 75.8285 214.589C31.8064 200.215 0 158.822 0 110C0 49.2487 49.2487 0 110 0C117.038 0 123.921 0.660955 130.592 1.92418ZM144.172 5.41119C158.045 16.2229 167 33.4484 167 52.8C167 85.4206 141.554 112 110 112C80.8023 112 57.0002 136.639 57.0002 167.2C57.0002 190.124 70.3923 209.715 89.4085 218.076C96.0788 219.339 102.962 220 110 220C170.751 220 220 170.751 220 110C220 61.1781 188.194 19.785 144.172 5.41119Z" fill="#AFAFAF"/>
<path fill-rule="evenodd" clip-rule="evenodd" d="M144.783 98.6416C140.237 134.099 142.754 151.198 149.402 180.51C143.952 144.557 142.131 124.932 160 81.848L141.386 91.032L122.772 100.216L141.793 80.2736L137.344 76.2361L143.05 24.12L129.463 37.24L137.344 33.304L129.293 73.6254C124.955 71.8744 121.303 70.833 116.793 70.5359L115.605 25.9568L118.865 28.056L113.431 11L107.996 28.056L111.257 25.9568L109.728 70.5359C105.333 70.7722 101.962 71.6635 97.458 73.1888L89.5176 33.304L97.9415 37.24L83.8111 24.12L89.5176 76.2361L83.8111 80.2736C88.2039 85.5279 87.7883 94.8946 83.6413 122.782C83.6413 122.782 79.6466 123.814 73.0085 129.807C66.3703 135.8 61.924 144.124 60.4953 153.234C59.0667 162.343 60.7526 171.618 65.2402 179.337C68.5648 185.056 72.3647 188.97 77.4385 191.531C70.049 197.654 67.1508 201.069 63.5798 208.849C74.7321 198.672 86.4467 193.302 103.525 197.304C114.397 191.553 121.754 189.553 137.765 191.793C133.463 188.405 130.31 187.526 124.449 186.283C132.519 179.566 136.043 154.519 127.479 144.299C120.215 167.39 101.352 174.475 82.0581 157.944C88.0445 168.196 89.8965 174.522 106.243 174.475C109.739 165.826 123.362 164.241 123.362 170.277C123.362 176.312 116.489 181.49 111.134 184.184C105.779 186.878 93.8075 185.361 88.2114 183.644C82.6154 181.928 77.8397 178.072 74.7711 172.794C71.7026 167.516 70.5497 161.174 71.5266 154.945C72.5035 148.716 75.2978 142.362 79.837 138.264C85.6094 132.887 89.9858 130.654 97.0038 128.818C103.953 126.999 117.736 130.765 118.672 133.206C116.492 126.643 115.711 122.468 116.793 108.35L144.783 98.6416ZM108.913 123.307C104.565 121.47 99.0079 120.187 91.7935 121.47C91.9834 119.568 92.1628 117.818 92.3314 116.173C93.4809 104.96 94.1323 98.6056 94.2391 81.848C99.9581 78.5615 104.022 76.634 109.728 76.634C109.705 95.2723 109.569 105.548 108.913 123.307ZM116.793 96.0176V76.634C123.647 76.882 127.847 79.4591 131.717 81.8346L131.739 81.848L116.793 96.0176Z" fill="#303033"/>
<path d="M131.739 81.848L116.793 96.0176V76.634C123.647 76.882 127.847 79.4591 131.717 81.8346M131.739 81.848L131.717 81.8346M131.739 81.848C131.732 81.8435 131.725 81.8391 131.717 81.8346M118.696 133.278C118.688 133.254 118.68 133.23 118.672 133.206M118.696 133.278L118.672 133.206M118.696 133.278C118.691 133.263 118.686 133.247 118.681 133.232C118.678 133.223 118.675 133.214 118.672 133.206M118.672 133.206C116.492 126.643 115.711 122.468 116.793 108.35L144.783 98.6416C140.237 134.099 142.754 151.198 149.402 180.51C143.952 144.557 142.131 124.932 160 81.848L141.386 91.032L122.772 100.216L141.793 80.2736L137.344 76.2361L143.05 24.12L129.463 37.24L137.344 33.304L129.293 73.6254C124.955 71.8744 121.303 70.833 116.793 70.5359L115.605 25.9568L118.865 28.056L113.431 11L107.996 28.056L111.257 25.9568L109.728 70.5359C105.333 70.7722 101.962 71.6635 97.458 73.1888L89.5176 33.304L97.9415 37.24L83.8111 24.12L89.5176 76.2361L83.8111 80.2736C88.2039 85.5279 87.7883 94.8946 83.6413 122.782C83.6413 122.782 79.6466 123.814 73.0085 129.807C66.3703 135.8 61.924 144.124 60.4953 153.234C59.0667 162.343 60.7526 171.618 65.2402 179.337C68.5648 185.056 72.3647 188.97 77.4385 191.531C70.049 197.654 67.1508 201.069 63.5798 208.849C74.7321 198.672 86.4467 193.302 103.525 197.304C114.397 191.553 121.754 189.553 137.765 191.793C133.463 188.405 130.31 187.526 124.449 186.283C132.519 179.566 136.043 154.519 127.479 144.299C120.215 167.39 101.352 174.475 82.0581 157.944C88.0445 168.196 89.8965 174.522 106.243 174.475C109.739 165.826 123.362 164.241 123.362 170.277C123.362 176.312 116.489 181.49 111.134 184.184C105.779 186.878 93.8075 185.361 88.2114 183.644C82.6154 181.928 77.8397 178.072 74.7711 172.794C71.7026 167.516 70.5497 161.174 71.5266 154.945C72.5035 148.716 75.2978 142.362 79.837 138.264C85.6094 132.887 89.9858 130.654 97.0038 128.818C103.953 126.999 117.736 130.765 118.672 133.206ZM94.2391 81.848C99.9581 78.5615 104.022 76.634 109.728 76.634C109.705 95.2723 109.569 105.548 108.913 123.307C104.565 121.47 99.0079 120.187 91.7935 121.47C91.9834 119.568 92.1628 117.818 92.3314 116.173C93.4809 104.96 94.1323 98.6056 94.2391 81.848Z" stroke="#D90000" stroke-width="2"/>
</svg>
